<?xml version="1.0" encoding="utf-8"?>
<!-- Generator: Adobe Illustrator 18.1.1, SVG Export Plug-In . SVG Version: 6.00 Build 0)  -->
<!DOCTYPE svg PUBLIC "-//W3C//DTD SVG 1.1//EN" "http://www.w3.org/Graphics/SVG/1.1/DTD/svg11.dtd">
<svg version="1.1" id="Layer_1" xmlns="http://www.w3.org/2000/svg" xmlns:xlink="http://www.w3.org/1999/xlink" x="0px" y="0px"
	 viewBox="0 0 601.5 291" enable-background="new 0 0 601.5 291" xml:space="preserve">
<path fill="#FFFFFF" d="M59.6,153.1l39.7,0.3l-0.1,23.3l-39.7-0.3L59.6,153.1 M56.5,146.5c-1.9,0-3.4,1.6-3.4,3.7l-0.2,29
	c0,2,1.5,3.7,3.4,3.7l46,0.4c0,0,0,0,0,0c1.9,0,3.4-1.6,3.4-3.7l0.2-29c0-2-1.5-3.7-3.4-3.7L56.5,146.5
	C56.5,146.5,56.5,146.5,56.5,146.5L56.5,146.5z"/>
<g>
	<path fill="#FFFFFF" d="M48.5,161.5l-18.2-13c0,0,0.5,1.7,0.8,3.3c0.3,1.7,0.7,2.5,0.7,2.5l16.7,12.6l0,4.2l5.9,0l0.1-11.3l-5.9,0
		L48.5,161.5z"/>
	<g>
		<path fill="#FFFFFF" d="M128.2,61.5c-1.7,1.5-2.9,2.5-5.1,3.8c-0.2,0.1-0.5,0.4-0.9,0.6c-0.2,0.1-0.4,0.3-0.6,0.4
			c-0.3,0.2-0.7,0.5-1.1,0.8c-0.5,0.4-1,0.8-1.4,1.2c-0.4,0.5-0.8,0.9-1.2,1.4c-0.8,1-1.5,2.2-2.2,3.3c-0.3,0.6-0.7,1.2-1,1.8
			l-0.2,0.5l-0.1,0.2l-0.1,0.1l0,0c-0.7-0.2,1.6,0.5-1.7-0.4l0,0l0-0.1l0.1-1.1c0.2-1.4,0.3-2.9,0.6-4.3c0.1-0.4,0.1-0.7,0.2-1.2
			c0.1-0.2,0.1-0.5,0.2-0.7c0.1-0.2,0.1-0.3,0.2-0.4c0.1-0.1,0.1-0.2,0.1-0.3c0,0,0,0,0,0c0,0-0.2-0.1-0.5-0.2
			c-0.3-0.1-0.6-0.1-0.9-0.2c-0.3,0-0.6,0-0.9,0c-0.6,0.1-1.3,0.2-2,0.5c-1.4,0.4-2.7,1-4,1.6l-1,0.5l-0.6,0.3l-1,0.5
			c-0.6,0.3-1.6,1.2-1.4,0c0-0.7,0-1.4,0-2.1l0-0.3l0-0.2l0.1-0.4c0-0.2,0.1-0.5,0.2-0.8c0.1-0.5,0.3-1,0.7-1.5
			c0.1-0.1,0.2-0.2,0.3-0.4c0.1-0.1,0.3-0.2,0.4-0.3c0.1-0.1,0.3-0.2,0.4-0.3c0.3-0.2,0.5-0.4,0.7-0.6c0.1-0.1,0.1-0.2,0.2-0.3l0,0
			h0l0,0c-0.3-0.2,2.3,2,1.2,1l0,0l0,0l0,0l-0.1,0.1c-0.1,0-0.1,0.1-0.2,0.1c-0.3,0.1-0.5,0.3-0.7,0.3c-0.4,0.2-0.6,0.3-0.6,0.3l0,0
			c-0.9,0.5-1.8,0.9-2.6,1.4c-0.5,0.3-1,0.5-1.5,0.8c-0.4,0.2-0.7,0.4-1.1,0.6c-0.2,0.1-0.3,0.2-0.5,0.3l-0.2,0.1c0,0-0.2,0.2-0.2,0
			c0.1-0.5,0.1-0.9,0.1-1.4c0-0.2,0.1-0.4,0-0.6c0-0.2,0-0.3-0.1-0.4c0-0.2-0.1-0.4-0.2-0.5c-0.1-0.3-0.2-0.3-0.1-0.3
			c-0.2-0.2-0.4-0.5-0.7-0.7L97,63.9c-0.2-0.1-0.3-0.1-0.5-0.2c-0.6-0.4-1.2-0.4-2-0.5c-1.5-0.1-3,0.1-4.4,0.3
			c-2.9,0.4-5.5,1-7.6,1.4c-0.6,0.1-1.2,0.3-1.7,0.4c-0.5,0.1-0.9,0.2-1.4,0.3l-0.3,0.1c0,0-0.1,0-0.1,0l0-0.1c0-0.2,0-0.4,0-0.6
			c0-0.4,0-0.7,0.1-1.1c0.1-0.3,0.1-0.7,0.2-1c0.1-0.4,0.2-0.7,0.4-1c0.3-0.6,0.6-0.9,0.7-1c0.1-0.1,0,0-0.2,0.3
			c0.3-0.4,0.9-0.8,1.3-1c0.4-0.2,0.9-0.3,1.3-0.5l0.3-0.1l0,0l0.1,0c0,0,0.1,0,0.1,0c0,0,0,0,0,0l0,0c0.1,0-0.3-0.1-0.4-0.1
			c-0.1,0-0.1,0,0,0c0.1,0,0.2,0,0.3,0.1c0.1,0,0,0,0.1,0l0,0l-0.3-0.1l-0.7-0.1c-0.5-0.1-1-0.2-1.4-0.3c-1-0.2-1.9-0.3-2.8-0.5
			c-1.8-0.3-3.6-0.4-5.2-0.5c-1.6,0-3.2,0.1-4.5,0.5c-0.3,0.1-0.6,0.2-0.8,0.4c-0.3,0.1-0.5,0.4-0.8,0.6c-0.3,0.2-0.5,0.4-0.8,0.7
			c-0.3,0.2-0.5,0.5-0.7,0.7c-1.8,2-3.2,4-4.4,5.8c-1.2,1.8-2.2,3.5-3,4.9c-0.9,1.5-1.6,2.6-2.2,3.7c-0.6,1-1,1.9-1.4,2.5
			c-0.7,1.3-1.1,1.9-1.1,1.9s-0.2,0.4-0.7,1.2c-0.5,0.8-1.3,2-2.5,3.3c-0.6,0.6-1.3,1.3-2,2c-0.7,0.7-1.2,1.5-1.5,2.6
			c-0.6,2.1-0.5,4.9-0.5,7.9c0,3,0,6.3-0.1,9.8c-0.1,1.8-0.2,3.6-0.5,5.5c-0.2,0.9-0.3,1.9-0.5,2.8c-0.2,0.9-0.5,1.9-0.7,2.8
			c-0.1,0.5-0.2,1-0.3,1.4c-0.2,0.5-0.3,0.9-0.4,1.4c-0.3,0.9-0.6,1.9-0.9,2.9c-0.6,1.9-1.3,3.8-1.8,5.8c-0.3,1-0.5,2-0.7,3
			l-0.3,1.5c-0.1,0.5-0.2,1-0.2,1.5L39,137c0,0.5,0,1,0,1.6c0,1-0.1,2.1-0.1,3.2c-0.1,2.2-0.4,4.3-0.7,6.5c-0.3,2.1-0.6,4.3-0.4,6.2
			l0.1,0.7l0.1,0.8c0.1,0.6,0.1,1.1,0.2,1.7c0.1,1.1,0.1,2.2,0.1,3.3c0.1,2,0.6,4.1,0.9,6.2l0.3,1.6l0.1,0.8l0,0.1l-0.4,0.1
			c-3.3,0.9-0.6,0.1-1.3,0.3l-0.1-0.2l-0.1-0.3c-0.4-0.9-0.8-1.9-1.3-2.5c-0.2-0.3-0.7-0.6-1-0.9l-0.6-0.4c-0.1-0.1-0.2-0.1-0.3-0.2
			l-0.2-0.1l-0.4-0.2c-0.3-0.1-0.3-0.4-0.4-0.6l-0.1-0.5l-0.2-0.7l-0.5-1.5c-0.3-1-0.6-1.9-1-2.8l-0.5-1.3c-0.2-0.5-0.4-1.1-0.5-1.6
			c-0.2-1-0.4-2-0.6-2.9c-0.2-0.9-0.3-1.7-0.5-2.6c-0.3-1.7-0.6-3.1-0.8-3.7c-0.2-0.5-0.4-1.2-0.6-1.7c-0.2-0.6-0.3-1.1-0.3-1.6
			c-0.1-1-0.1-2-0.1-3.1c0.5,1,0.9,1.9,1.3,2.8c0.2,0.4,0.4,0.9,0.6,1.4c0.2,0.5,0.4,0.9,0.7,1.7c0.3,0.8,0.6,2.2,0.9,3.9
			c0.2,0.9,0.3,1.7,0.5,2.6c0.2,0.9,0.3,1.9,0.6,2.8c0.1,0.5,0.2,0.8,0.4,1.2c0.2,0.5,0.4,1,0.6,1.5c0.4,1,0.7,1.9,1,2.9
			c0.3,0.8,0.5,1.7,0.8,2.5l0,0l0.2,0.1c0.1,0.1,0.2,0.1,0.4,0.2l0.7,0.5c0.4,0.4,0.9,0.6,1.3,1.2c0.8,1,1.2,2,1.6,3l0.1,0.4
			l0.1,0.2c-0.7,0.2,1.7-0.4-1.7,0.5l0,0l0-0.1l-0.1-0.8l-0.3-1.6c-0.4-2.1-0.9-4.2-1-6.5c0-1.1-0.1-2.2-0.1-3.2
			c0-0.5-0.1-1-0.2-1.6c-0.1-0.5-0.1-1-0.2-1.6c-0.2-2.3,0.1-4.5,0.4-6.7c0.3-2.1,0.6-4.2,0.7-6.3c0-1.1,0.1-2.1,0.1-3.2
			c0-0.5,0-1.1,0-1.6l0.2-1.6c0-0.5,0.1-1.1,0.2-1.6l0.3-1.6c0.2-1.1,0.5-2.1,0.7-3.1c0.5-2.1,1.2-4,1.8-5.9
			c0.3-0.9,0.6-1.9,0.9-2.8c0.1-0.5,0.3-0.9,0.4-1.4c0.1-0.5,0.2-0.9,0.3-1.4c1.1-3.7,1.4-7.3,1.6-10.7c0.2-3.5,0.1-6.7,0.1-9.7
			c0-3-0.1-5.8,0.6-8.4c0.3-1.3,1.1-2.4,1.8-3.3c0.8-0.8,1.4-1.4,2-2.1c1.1-1.2,1.8-2.3,2.3-3c0.5-0.7,0.7-1.2,0.7-1.2
			s0.3-0.5,1.1-1.8c0.4-0.6,0.8-1.5,1.4-2.5c0.6-1,1.4-2.3,2.2-3.7c0.9-1.4,1.8-3.1,3.1-5c1.2-1.9,2.6-4,4.6-6.1
			c0.2-0.3,0.5-0.5,0.8-0.8c0.3-0.2,0.6-0.5,0.9-0.8c0.3-0.3,0.6-0.5,0.9-0.8c0.4-0.3,0.8-0.4,1.2-0.6c1.7-0.6,3.4-0.6,5.1-0.6
			c1.8,0,3.6,0.2,5.5,0.5c0.9,0.1,1.9,0.3,2.9,0.5c0.5,0.1,1,0.2,1.5,0.3c0.6,0.1,1.3,0.3,1.9,0.4c-0.6-0.1-1-0.2-1.2-0.3
			c-0.1,0-0.1,0,0,0c0.2,0,0.5,0.1,1,0.2c0.6,0.1,1.4,0.3,2.4,0.6c0.9,0.2,1.9,0.5,3.1,0.8c0.3,0.1,0.6,0.2,0.9,0.2l0.2,0.1
			c0,0,0.1,0,0.1,0l-0.1,0c-0.2,0-0.4,0.1-0.6,0.1c-0.8,0.2-1.6,0.3-2.5,0.5c-0.9,0.2-1.5,0.4-2.3,0.5c-0.4,0.1-0.8,0.2-1.1,0.3
			l-0.6,0.1c-0.2,0-0.2,0.1-0.3,0.1c-0.4,0.1-0.7,0.3-1.1,0.4c-0.3,0.2-0.5,0.3-0.7,0.5c0.1-0.2,0.2-0.2,0.1-0.1
			c0,0.1-0.2,0.2-0.4,0.6C81,63,81,63.3,80.9,63.5c0,0.1,0,0.1,0,0.1l0,0l0,0c0,0,0,0,0,0c0.4-0.1,0.8-0.2,1.3-0.3
			c2.2-0.5,4.8-1.1,7.8-1.5c1.5-0.2,3.1-0.4,4.8-0.3c0.4,0.1,0.8,0,1.3,0.2c0.2,0.1,0.5,0.1,0.7,0.2l0.6,0.3
			c0.2,0.1,0.4,0.2,0.6,0.3l0.6,0.4c0.4,0.3,0.7,0.7,1,1.1c-0.1-0.1,0,0,0.2,0.5c0.1,0.2,0.2,0.5,0.3,0.8c0,0,0,0,0,0c0,0,0,0,0,0v0
			l0.3-0.1c0.2-0.1,0.4-0.2,0.6-0.3c0.8-0.4,1.7-0.9,2.6-1.4l0,0c0,0,0.2-0.1,0.6-0.3c0.2-0.1,0.4-0.2,0.7-0.4
			c0.1,0,0.1-0.1,0.2-0.1l0.1-0.1l0,0v0h0c-1.1-0.9,1.5,1.3,1.2,1.1l0,0l0,0.1l0,0.1c-0.1,0.2-0.2,0.4-0.4,0.6
			c-0.3,0.3-0.6,0.7-1,0.9c-0.2,0.1-0.4,0.3-0.6,0.4c-0.1,0-0.1,0.1-0.1,0.1c0,0-0.1,0.1-0.1,0.1c-0.2,0.2-0.3,0.6-0.4,0.9
			c0,0.2-0.1,0.4-0.1,0.6l-0.1,0.3l0,0.2c0,0.1,0,0,0,0c0,0,0,0,0,0l0,0l0.4-0.2l1-0.5c1.4-0.6,2.8-1.2,4.3-1.7
			c0.7-0.2,1.5-0.4,2.3-0.5c0.4-0.1,0.9,0,1.3,0c0.4,0.1,0.8,0.1,1.2,0.2c0.4,0.1,0.9,0.3,1.4,0.9c0.2,0.3,0.3,0.7,0.3,1
			c0,0.3-0.1,0.6-0.2,0.8c-0.1,0.2-0.2,0.4-0.3,0.6c-0.1,0.2-0.1,0.3-0.1,0.4c-0.1,0.3-0.1,0.7-0.2,1c-0.2,1.4-0.4,2.8-0.5,4.2
			l-0.1,1.1l0,0.1v0c-3.3-0.9-0.9-0.3-1.6-0.5l0,0l0.1-0.1l0.1-0.2l0.2-0.5c0.3-0.6,0.7-1.3,1-1.9c0.7-1.2,1.5-2.4,2.3-3.5
			c0.4-0.6,0.9-1.1,1.4-1.6c0.5-0.5,1.1-1,1.6-1.4c0.4-0.3,0.8-0.5,1.1-0.8c0.2-0.2,0.4-0.3,0.6-0.4c0.4-0.3,0.7-0.5,1-0.6
			C124.5,62.4,126,62,128.2,61.5z"/>
	</g>
	<g>
		<path fill="#FFFFFF" d="M20.9,146.3l1.6-3.4c0-1.2,0-0.2-0.2-1.2c-0.1-0.5-0.2-1-0.4-1.5c-0.2-0.5-0.3-1.1-0.5-1.4l-0.2-0.6
			l-0.1-0.6c-0.1-0.3-0.1-0.8-0.1-1.2c0-0.5,0-0.9,0-1.3l0-1.4L21,122l0-11.5l-0.1-2.9c0-1-0.1-2-0.2-2.9c-0.2-1.9-0.3-3.9-0.6-5.8
			c-0.5-3.8-1.1-7.6-1.4-11.4c-0.3-3.8-0.5-7.5,0.5-11c1-3.5,2.7-7,4.4-10.3l1.4-2.6c0.4-0.9,0.9-1.8,1.3-2.7
			c0.8-1.8,1.5-3.6,2.1-5.5c0.3-0.9,0.5-1.9,0.8-2.9c0.2-1,0.3-2,0.4-3c0.3-2,0.3-3.9,0.4-5.9c0.1-1.9,0.1-3.9,0.2-5.8l0-1.1
			c0.1,0-0.2,0.2,0.4-0.3c0.8-0.6,1.5-1.3,2.2-1.9l1.1-1c0.4-0.3,0.8-0.8,1.2-1.3c0.3-0.5,0.7-1.1,0.8-1.8c0.1-0.6,0.1-0.4,0.1-0.4
			c0,0,0,0,0,0l0,0c0,0-0.1,0,0.3,0c0.5,0,1.1,0.1,1.6,0.1l1.6,0c4.2-0.4,8-2.3,11.3-4.5c0.8-0.6,1.7-1.2,2.4-1.9
			c0.4-0.3,0.8-0.7,1.1-1.1c0.4-0.4,0.7-0.8,1-1.3c0.3-0.4,0.6-0.9,0.9-1.5l0.2-0.5l0-0.2l0-0.1c-1.1-0.5,2.5,0.9-2.5-1.1
			c-0.1,0.2-0.1,0.2-0.2,0.3c-0.2,0.4-0.3,0.9-0.3,1.3c0,1,0.6,1.8,1.2,2.2c0.5,0.4,1.1,0.7,1.6,0.9c0.5,0.2,1.1,0.4,1.5,0.5
			c0.5,0.1,1,0.3,1.5,0.4c1,0.2,2,0.4,2.9,0.5c1,0.2,2,0.2,3,0.3c1,0,2,0,3,0c1-0.1,2-0.2,3-0.4l1.5-0.3l0.7-0.2l0.7-0.3
			c2-0.6,3.8-1.6,5.5-2.7c3.4-2.2,6.4-4.7,9.2-7.3l1.4-1.3l0.6-0.6c0,0,0,0,0,0c0.4,0.7,1,1.4,1.5,2c0.6,0.6,1.2,1.2,1.9,1.6
			c0.3,0.2,0.7,0.5,1,0.7l1.1,0.5c1.5,0.7,2.9,1.1,4.5,1.5c1.5,0.3,3.1,0.6,4.6,0.7l1.1,0.1l1,0.1c0.5,0.1,1.1,0.3,1.8,0.7
			c1.3,0.6,2.8,1.3,4.4,1.7c0.8,0.2,1.6,0.3,2.4,0.4c0.7,0.1,1.4,0.1,2.2,0.2c0.7,0.1,1.5,0.2,2.4,0.2c0.9,0,1.8-0.2,2.7-0.5l0,0
			c0.2-0.1,0.4-0.2,0.6-0.3l0.3-0.2l0.1-0.1c0.1,0,0.1-0.1,0.2-0.2l0.4-0.3c0.3-0.2,0.5-0.5,0.8-0.8c0.6-0.8,1-1.7,1.3-2.6
			c0.4-0.8,0.6-1.7,1.1-2.5c0.4-2,0.5-4.1,0.1-6c-0.2,1.9-0.9,3.7-1.5,5.5c-0.5,0.8-0.9,1.5-1.5,2.2c-0.5,0.7-1.1,1.3-1.7,1.8
			c-0.1,0.1-0.3,0.3-0.4,0.4l-0.2,0.2c0,0-0.1,0.1-0.1,0.1l-0.1,0c-0.1,0.1-0.3,0.2-0.5,0.3l0,0c-1,0.4-2.2,0.3-3.7,0.2
			c-0.7-0.1-1.5-0.2-2.3-0.3c-0.7-0.1-1.3-0.2-2-0.3c-1.3-0.3-2.5-0.8-3.9-1.5c-0.7-0.3-1.5-0.7-2.4-0.9c-0.4-0.1-0.8-0.1-1.2-0.2
			l-1.1-0.1c-1.5-0.1-2.9-0.4-4.2-0.7c-1.3-0.4-2.7-0.8-3.9-1.4l-0.9-0.4c-0.3-0.2-0.5-0.4-0.8-0.5c-0.6-0.3-1-0.8-1.5-1.2
			c-0.4-0.5-0.8-1-1.2-1.5c-0.4-0.8-0.7-1.5-1-2.3l-0.2-0.6L91.8,7l0-0.1l0,0L91.7,7l-0.8,0.8l-1.4,1.4l-0.7,0.7l-0.4,0.4L87,11.6
			c-2.8,2.5-5.7,5-8.9,7c-1.6,1-3.2,1.9-4.9,2.4l-0.6,0.2L72,21.3l-1.3,0.3c-0.9,0.2-1.8,0.2-2.7,0.3c-0.9,0-1.8,0-2.7,0
			c-0.9-0.1-1.8-0.1-2.7-0.3c-0.9-0.1-1.8-0.3-2.7-0.5c-0.5-0.1-0.9-0.2-1.3-0.3c-0.5-0.1-0.9-0.2-1.2-0.4c-0.4-0.1-0.7-0.3-0.9-0.5
			c-0.2-0.2-0.2-0.2-0.2-0.2c0,0,0,0,0-0.1c0,0,0,0,0,0c-0.1,0-0.2-0.1-0.2-0.1c-0.5-0.3,0.4,0.2,0.3,0.2c-5-2.1-1.4-0.6-2.5-1v0
			c0,0,0,0,0,0l-0.1,0.2c-0.1,0.3-0.3,0.7-0.6,1c-1,1.3-2.4,2.5-3.9,3.6c-3.1,2.1-6.4,3.7-9.9,4l-1.3,0c-0.4,0-0.9-0.1-1.3-0.1
			c-0.1,0-0.7-0.2-1.1-0.3C35.2,27.1,35,27,34.8,27l-0.3,0.4l-0.6,0.8l-0.5,0.7c-0.2,0.2-0.1,0.4-0.1,0.6l0,0.3c0,0.1,0,0.1,0,0.1
			c-0.1,0.1,0,0.3-0.2,0.4c-0.1,0.1-0.2,0.3-0.2,0.4c-0.1,0.1-0.3,0.3-0.4,0.4c-0.1,0.1-0.2,0.3-0.4,0.4l-1.1,0.9
			c-0.7,0.6-1.4,1.3-2.1,1.8L28,34.9l-0.6,0.5c-0.1,0.1-0.1,0.2-0.1,0.3l0,0.4l0,1.8c0,1.9,0,3.8-0.1,5.7c-0.1,1.9-0.1,3.8-0.4,5.6
			c-0.1,0.9-0.2,1.9-0.4,2.8c-0.2,0.9-0.4,1.8-0.7,2.7c-0.5,1.8-1.2,3.5-2,5.2c-0.4,0.9-0.8,1.7-1.2,2.5c-0.2,0.3-0.5,0.8-0.7,1.2
			l-0.7,1.3c-1.8,3.5-3.5,7-4.7,10.9l-0.4,1.5c-0.1,0.5-0.1,1-0.2,1.5c-0.2,1-0.2,2-0.2,3c0,2,0.1,4,0.2,5.9
			c0.4,3.9,0.9,7.7,1.4,11.5c0.3,1.9,0.4,3.8,0.6,5.7c0.1,0.9,0.1,1.9,0.2,2.8l0.1,2.8l0,11.5l-0.1,11.5l0,1.4c0,0.5,0,1,0,1.5
			c0,0.5,0,1,0.2,1.6c0.1,0.3,0.1,0.6,0.2,0.9l0.3,0.7c0.3,0.9,0.6,1.6,0.7,2.6C19.7,143.2,20.9,145.6,20.9,146.3z"/>
	</g>
	<g>
		<path fill="#FFFFFF" d="M33.5,202.4c0,0-0.1,0-0.1,0c-4.4-0.1-5.2-5.7-5.7-9c-0.3-1.9-2-5.6-3.4-8.5c-0.8-1.6-1.5-3.2-2-4.5
			c-1.6-3.9-2.9-11.5-3.4-15.5c-0.3-2.5,0-5.7,0.3-9c0.2-2.2,0.5-4.5,0.5-6.7c0.1-5.5,1.4-9.1,3.4-10c0.8-0.4,2.2-0.9,7.7,6
			l-2.5,1.9c-1.5-2-3.3-3.9-4.3-4.7c-0.4,0.8-1.2,2.8-1.2,6.8c0,2.3-0.3,4.7-0.5,6.9c-0.3,3.1-0.6,6-0.3,8.2
			c0.5,3.8,1.7,11.1,3.2,14.7c0.5,1.2,1.2,2.7,2,4.3c1.7,3.5,3.4,7.1,3.7,9.4c0.4,2.4,1,6.4,2.7,6.4c0,0,0,0,0,0
			c1.7,0,3.8-2.6,4.6-3.9l2.7,1.6C40.5,197.5,37.4,202.4,33.5,202.4z"/>
	</g>
	<g>
		<path fill="#FFFFFF" d="M35.5,179.6c0.1,1.2,0.2,2.4,0.3,3.7c0.1,1.3,0.2,2.7,0.4,4.2c0.3,3,1,6.1,1.8,9.4c0.9,3.2,1.9,6.6,3.1,10
			c2.2,6.9,4.7,14.2,7.3,21.5c1.3,3.6,2.7,7.3,4.2,10.8c0.4,0.9,0.8,1.8,1.3,2.7c0.3,0.4,0.5,0.9,0.8,1.3l0.9,1.2
			c0.6,0.8,1.2,1.5,1.9,2.2c0.6,0.7,1.3,1.4,1.9,2c5.2,5.2,10.5,9.5,15,13.1c2.3,1.8,4.4,3.5,6.2,4.9c1.2,0.9,2.2,1.7,3,2.3
			c0.6,0.4,0.9,0.7,0.9,0.7c3.2,1.8,6.5,3.6,9.8,5.3c-2.8-2.5-5.6-5.1-8.4-7.7c0,0-0.3-0.2-0.9-0.6c-1.1-0.8-2.4-1.9-4-3
			c-1.8-1.4-3.9-3-6.1-4.8c-4.4-3.6-9.5-7.8-14.5-12.8c-1.2-1.3-2.4-2.6-3.4-4c-0.3-0.3-0.5-0.7-0.7-1.1c-0.2-0.4-0.4-0.7-0.6-1.1
			c-0.4-0.8-0.8-1.6-1.1-2.5c-1.4-3.4-2.8-7-4.1-10.5c-2.6-7.2-5-14.4-7.2-21.1c-1.1-3.4-2.1-6.7-3-9.8c-0.4-1.5-0.7-3.1-1-4.5
			c-0.2-0.7-0.3-1.5-0.4-2.2c-0.1-0.7-0.2-1.4-0.3-2.1c-0.2-1.4-0.2-2.7-0.4-4c-0.1-1.3-0.2-2.6-0.3-3.7c-0.2-2.1,0.1-4.1,0.3-5.6
			c0.3-1.6,0.6-2.8,0.8-3.6c0.1-0.2,0.2-0.2,0.2-0.4l-0.2-1l-2.3-0.7c0,0-0.2,0.5-0.4,1.4c-0.2,0.9-0.6,2.2-0.9,4
			C35.6,174.9,35.3,177,35.5,179.6z"/>
	</g>
</g>
<path fill="#FFFFFF" d="M116,160.2l0.2,4v19.2h-6.4v-28.4h6.4l20.3,18.4l18.7-18.4h7.1v28.4h-7.1v-19.2c0-1.4,0.2-2.7,0.5-4
	c-0.9,1.8-1.8,3.1-2.7,4l-15.7,14.7h-2L119,164.3C117.8,163.2,116.8,161.8,116,160.2z"/>
<path fill="#FFFFFF" d="M206.2,159.1h-32.3v20h32.3v-7.8h-16.7v-3.9h24.4v9.2c0,2.6-0.7,4.4-2.1,5.3c-1.4,0.9-4,1.4-7.9,1.4h-27.6
	c-3.9,0-6.6-0.5-7.9-1.4c-1.4-0.9-2.1-2.7-2.1-5.3v-14.9c0-2.6,0.7-4.4,2.1-5.3c1.4-1,4-1.4,7.9-1.4h27.6c3.7,0,6.2,0.5,7.8,1.4
	c1.5,0.9,2.3,2.6,2.3,5v0.8l-7.7,0.9V159.1z"/>
<path fill="#FFFFFF" d="M217.7,183.3v-28.4h41.1v4.2h-33.4v7.3h20.1v4.2h-20.1v8.5h33.8v4.2H217.7z"/>
<path fill="#FFFFFF" d="M263.1,183.3v-2.5l30.8-21.6h-28v-4.2h40.3v2.3L275.1,179h31.1v4.3H263.1z"/>
<g>
	<path fill="#FFFFFF" d="M346.5,140.1c8.7,0,15.1,1.1,19.1,3.3c3.2,1.8,5.7,4.3,7.6,7.5c1.8,3.2,2.7,6.7,2.7,10.6
		c0,8.4-3.4,14.6-10.3,18.5c-3.9,2.2-10.3,3.4-19.1,3.4h-27.3v-43.2H346.5z M345.4,145.9h-17.9v31.4h17.9c7.7,0,13.2-1.1,16.6-3.4
		c3.7-2.4,5.5-6.6,5.5-12.5c0-5.7-1.8-9.8-5.5-12.2C358.6,147,353,145.9,345.4,145.9z"/>
	<path fill="#FFFFFF" d="M379.8,183.3v-28.4h41.1v4.2h-33.4v7.3h20.1v4.2h-20.1v8.5h33.8v4.2H379.8z"/>
	<path fill="#FFFFFF" d="M462.4,159.1h-28.6v7.3H460c3.9,0,6.5,0.5,7.8,1.4c1.4,0.9,2.1,2.7,2.1,5.3v3.4c0,2.6-0.7,4.4-2.1,5.3
		c-1.4,0.9-4,1.4-7.8,1.4h-24.8c-3.9,0-6.6-0.5-7.9-1.4c-1.4-0.9-2.1-2.7-2.1-5.2v-0.8l7-1v4.2H463v-8h-26.3c-3.9,0-6.5-0.5-7.8-1.4
		c-1.4-0.9-2.1-2.7-2.1-5.3v-2.7c0-2.6,0.7-4.4,2.1-5.4c1.4-0.9,4-1.4,7.8-1.4h22.7c3.7,0,6.2,0.4,7.8,1.3c1.5,0.9,2.3,2.5,2.3,4.9
		v0.7l-7,1.1V159.1z"/>
	<path fill="#FFFFFF" d="M481.5,183.3h-7.7V155h7.7V183.3z"/>
	<path fill="#FFFFFF" d="M525.4,159.1h-32.3v20h32.3v-7.8h-16.7v-3.9h24.4v9.2c0,2.6-0.7,4.4-2.1,5.3c-1.4,0.9-4,1.4-7.9,1.4h-27.6
		c-3.9,0-6.6-0.5-7.9-1.4c-1.4-0.9-2.1-2.7-2.1-5.3v-14.9c0-2.6,0.7-4.4,2.1-5.3c1.4-1,4-1.4,7.9-1.4h27.6c3.7,0,6.2,0.5,7.8,1.4
		c1.5,0.9,2.3,2.6,2.3,5v0.8l-7.7,0.9V159.1z"/>
	<path fill="#FFFFFF" d="M543.5,160.6c0.4,1.7,0.6,3.3,0.6,5.1v17.6H537v-28.4h5.9l29.9,18.6c1.9,1.2,3.5,2.5,4.9,3.9
		c-0.5-1.7-0.7-3.5-0.7-5.3v-17.1h7.1v28.4h-5.3l-30.5-18.8C546.3,163.2,544.7,161.9,543.5,160.6z"/>
</g>
</svg>
